<svg width="1440" height="1024" viewBox="0 0 1440 1024" fill="none" xmlns="http://www.w3.org/2000/svg">
<path d="M85.9816 478.774C39.9865 478.774 -20.7535 510.596 -45.7426 548.193C-46.3319 551.806 -48.7527 555.55 -51.9819 559.324C-59.7547 568.406 -72.2109 577.661 -75.0815 585.68C-81.2586 602.936 -97.5076 621.815 -111.633 636.31C-149.523 675.193 -138.988 732.17 -138.988 778.601C-138.988 791.956 -131.677 803.642 -130.498 816.809C-129.643 826.366 -124.649 849.827 -116.821 857.464C-103.068 870.88 -105.425 918.173 -72.0158 919.199C-14.9473 920.95 45.4639 934.254 85.9816 901.915C126.744 869.38 133.623 850.055 143.703 805.804C157.943 743.294 208.821 714.955 281.474 750.639C342.784 780.752 481.8 802.834 553.843 782.93C634.53 760.638 739.667 718.97 739.667 638.004C739.667 569.775 721.88 475.386 609.024 475.386C556.28 475.386 488.511 487.104 458.573 526.204C418.855 578.077 360.747 621.065 281.474 621.065C166.598 621.065 194.251 478.774 85.9816 478.774Z" fill="#BCABD3"/>
<path d="M-74.2316 645.41C-74.2316 638.178 -72.3614 630.881 -68.9819 623.701M-62.6043 611.308C-62.6043 611.842 -62.6517 612.378 -62.7426 612.918M-62.7426 612.918C-37.7535 576.495 22.9865 545.668 68.9816 545.668C177.251 545.668 149.598 683.512 264.474 683.512C343.747 683.512 401.855 641.868 441.573 591.616C471.511 553.737 539.28 542.386 592.024 542.386C704.88 542.386 722.667 633.825 722.667 699.922C722.667 778.358 617.53 818.724 536.843 840.32C464.8 859.602 325.784 838.21 264.474 809.038C191.821 774.468 140.943 801.922 126.703 862.478C116.623 905.346 109.744 924.068 68.9816 955.586C28.4639 986.914 -31.9473 974.027 -89.0158 972.329C-122.425 971.336 -120.068 925.521 -133.821 912.524C-141.649 905.126 -146.643 882.398 -147.498 873.14C-148.677 860.384 -155.988 849.063 -155.988 836.126C-155.988 791.146 -166.523 735.949 -128.633 698.281C-114.508 684.239 -98.2586 665.95 -92.0815 649.234C-89.2109 641.465 -76.7547 632.499 -68.9819 623.701M-62.7426 612.918C-63.3319 616.418 -65.7527 620.045 -68.9819 623.701M-62.7426 612.918C-65.1773 616.467 -67.2726 620.069 -68.9819 623.701" stroke="#8873A6" stroke-width="10" stroke-linecap="round"/>
<path d="M213.667 59.8858C201.167 37.8858 191.667 -10.6142 191.667 -10.6142H263.33C263.33 -10.6142 266.083 16.8493 272.288 34.5089C277.86 50.3655 291.797 56.2649 289.39 72.69C285.598 98.5598 226.167 81.8858 213.667 59.8858Z" fill="#F0CAA4"/>
<path d="M241.667 59.8858C229.167 37.8858 219.667 -10.6142 219.667 -10.6142H291.33C291.33 -10.6142 294.083 16.8493 300.288 34.5089C305.86 50.3655 319.797 56.2649 317.39 72.69C313.598 98.5598 254.167 81.8858 241.667 59.8858Z" stroke="#EDB174" stroke-width="10"/>
<path d="M755.819 -6.19779V-31.6995C762.446 -35.0133 760.838 -40.0404 769.845 -42.0418C777.7 -43.7875 786.098 -49.5506 794.071 -49.5506C815.15 -49.5506 835.28 -52.1008 856.409 -52.1008H1047.81C1064.01 -52.1008 1090.53 -47.692 1098.11 -31.6995C1101.55 -24.4271 1107.74 -18.3395 1107.74 -10.023C1107.74 19.2672 1106.2 48.7095 1107.74 77.9577C1109.02 102.17 1131.11 141.512 1148.54 157.013C1186.56 190.8 1238.29 203.43 1273.5 244.852C1322.41 302.386 1257.67 388.886 1181.67 362.886C1105.67 336.886 1041.95 230.858 983.167 277.886C955.737 299.829 923.843 316.794 894.094 335.525C844.803 366.56 699.689 358.17 651.262 315.123C591.558 262.053 603.607 222.731 651.262 153.896C668.165 129.48 689.918 107.562 710.482 86.1749C732.704 63.0645 755.819 27.5433 755.819 -6.19779Z" fill="#A2D7B7"/>
<path d="M701.609 32.2888V-19.2906C708.237 -22.6044 706.629 -27.6315 715.635 -29.6329C723.491 -31.3786 732.693 -65.7697 740.667 -39.692L802.199 -39.6919H993.603C1009.8 -39.6919 1036.32 -35.2831 1043.9 -19.2906C1047.34 -12.0183 1053.53 -5.93061 1053.53 2.38582C1053.53 31.6761 1051.99 87.1962 1053.53 116.444C1054.81 140.656 1076.9 179.998 1094.33 195.5C1132.35 229.287 1184.08 241.917 1219.29 283.339C1247.96 353.61 1196.96 408.872 1127.46 401.372C1053.51 401.372 987.452 196.358 928.667 243.386C901.237 265.329 843.415 334.879 813.667 353.61C764.375 384.645 645.48 396.657 597.052 353.61C537.348 300.539 549.397 261.217 597.052 192.383C613.956 167.967 635.709 146.048 656.273 124.662C678.494 101.551 701.609 66.0299 701.609 32.2888Z" stroke="#76BA91" stroke-width="10" stroke-linecap="round"/>
<path d="M214.233 108.789C170.905 65.8636 157.447 -4.61417 157.447 -4.61417H-1.3334V232.755C-1.3334 232.755 112.674 205.43 181.154 254.991C212.82 277.91 309.104 376.934 346.549 387.851C392.309 401.193 465.741 394.307 498.162 323.367C527.26 259.7 465.083 190.407 425.388 163.824C359.567 119.744 270.595 164.629 214.233 108.789Z" fill="#F0CAA4"/>
<path d="M184.167 168.386C140.839 125.46 67.0567 -22.1142 67.0567 -22.1142H-12.3334H-91.7235L-12.3334 314.755C-12.3334 314.755 101.674 287.43 170.154 336.991C201.82 359.91 298.104 458.934 335.549 469.851C381.309 483.193 454.741 476.307 487.162 405.367C516.26 341.7 454.083 272.407 414.388 245.824C348.567 201.744 240.529 224.226 184.167 168.386Z" stroke="#EDB174" stroke-width="10"/>
<circle cx="1281.67" cy="31.3858" r="90" fill="#A2D7B7"/>
<circle cx="1243.67" cy="65.3858" r="85" stroke="#76BA91" stroke-width="10"/>
<circle cx="869.667" cy="885.386" r="52" fill="#F8EE8F"/>
<circle cx="822.667" cy="856.386" r="47" stroke="#E3DC91" stroke-width="10"/>
<circle cx="252.167" cy="857.886" r="65.5" fill="#BCABD3"/>
<circle cx="241.167" cy="910.886" r="60.5" stroke="#8873A6" stroke-width="10"/>
<path d="M1439.24 303.054C1440.69 301.063 1447.69 289.3 1449.56 289.066C1475.83 289.066 1467.55 336.094 1467.55 353.513V398.475C1467.55 411.633 1466.49 425.25 1467.63 438.359C1468.86 452.461 1485.5 465.316 1479.54 479.741C1465.65 513.374 1449.31 534.778 1425.25 561.507C1394.17 596.036 1351.27 616.138 1308.01 630.866C1213.45 663.065 1039.71 699.726 1011.93 563.339C997.167 490.886 1006.89 422.985 1097.36 417.959C1133 415.979 1168.23 423.954 1203.77 423.954C1235.16 423.954 1289.17 426.545 1319.92 409.799C1371.5 381.713 1405.42 349.552 1439.24 303.054Z" fill="#F0B4D8"/>
<path d="M1463.78 296.15C1465.41 293.906 1473.31 280.649 1475.42 280.386C1505.03 280.386 1495.7 333.383 1495.7 353.013V403.683C1495.7 418.511 1494.51 433.857 1495.79 448.629C1497.18 464.521 1515.94 479.008 1509.22 495.265C1493.56 533.167 1475.13 557.288 1448.01 587.409C1412.97 626.322 1364.6 648.975 1315.83 665.573C1209.21 701.859 1013.33 743.173 982.003 589.474C965.362 507.824 976.322 431.304 1078.32 425.64C1118.51 423.409 1158.23 432.396 1198.3 432.396C1233.69 432.396 1294.58 435.316 1329.26 416.445C1387.41 384.794 1425.66 348.55 1463.78 296.15Z" stroke="#D091B7" stroke-width="10" stroke-linecap="round"/>
<path d="M957.728 899.736C946.1 929.394 918.06 949.658 880.601 956.438C827.5 966.049 798.26 956.438 771.709 912.247C761.293 877.922 728.65 815.863 659.623 852.398C630.725 887.144 664.721 915.362 695.403 935.952C730.481 959.492 699.598 1037.58 653.051 1041.31C655.257 1042.19 655.807 1044.1 657.615 1045.55C659.107 1046.75 661.966 1045.98 662.909 1047.31C663.916 1048.72 667.532 1055.07 668.659 1055.79C671.99 1057.93 674.256 1062.63 678.608 1063.62C682.215 1064.45 688.722 1068.58 691.661 1070.94C705.302 1081.87 725.944 1087.64 743.414 1093.33C759.01 1098.41 774.46 1104.29 790.147 1109.06C802.37 1112.77 813.913 1119.19 826.383 1122.23C834.88 1124.3 845.557 1122.96 854.313 1122.96H889.272C927.551 1122.96 965.938 1123.21 1004.1 1120.33C1075.26 1114.95 1148.91 1094.34 1208 1062.38C1217.23 1057.39 1230.31 1052.57 1235.2 1044.02C1237.42 1040.14 1236.3 1034.66 1236.3 1030.48V973.851C1236.3 961.915 1244.51 949.477 1247.71 937.927C1259.84 894.189 1350.75 823.771 1292.16 775.576C1267.46 755.254 1208.43 785.819 1150.5 785.819C1088.89 785.819 978.643 689.927 936.917 739.726C909.737 783.3 978.174 847.589 957.728 899.736Z" fill="#F8EE8F"/>
<path d="M895.276 877.666C881.858 914.627 849.505 939.88 806.283 948.33C745.013 960.308 711.274 948.33 680.639 893.258C668.62 850.481 630.956 773.141 551.309 818.673C517.965 861.974 557.191 897.14 592.593 922.8C633.067 952.136 597.433 1049.45 543.726 1054.1C546.271 1055.2 546.906 1057.58 548.992 1059.39C550.713 1060.88 554.012 1059.93 555.1 1061.57C556.262 1063.33 560.435 1071.25 561.735 1072.15C565.579 1074.81 568.192 1080.67 573.215 1081.91C577.377 1082.94 584.884 1088.09 588.275 1091.03C604.015 1104.65 627.833 1111.84 647.99 1118.93C665.985 1125.26 683.813 1132.59 701.913 1138.53C716.017 1143.16 729.336 1151.15 743.724 1154.94C753.528 1157.53 765.848 1155.85 775.951 1155.85H816.288C860.457 1155.85 904.749 1156.16 948.777 1152.57C1030.88 1145.87 1115.87 1120.19 1184.06 1080.36C1194.7 1074.14 1209.8 1068.13 1215.44 1057.47C1218 1052.64 1216.71 1045.82 1216.71 1040.6V970.03C1216.71 955.155 1226.18 939.655 1229.87 925.261C1243.86 870.753 1348.76 782.997 1281.16 722.934C1252.65 697.608 1184.55 735.7 1117.71 735.7C1046.61 735.7 919.409 616.196 871.264 678.257C839.902 732.56 918.867 812.679 895.276 877.666Z" stroke="#E3DC91" stroke-width="9" stroke-linecap="round"/>
<g opacity="0.2" filter="url(#filter0_d_59_2)">
<rect x="-3.05176e-05" y="-3.05176e-05" width="1440" height="1024" fill="white"/>
</g>
<defs>
<filter id="filter0_d_59_2" x="-6.00003" y="-6.00003" width="1456" height="1040" filterUnits="userSpaceOnUse" color-interpolation-filters="sRGB">
<feFlood flood-opacity="0" result="BackgroundImageFix"/>
<feColorMatrix in="SourceAlpha" type="matrix" values="0 0 0 0 0 0 0 0 0 0 0 0 0 0 0 0 0 0 127 0" result="hardAlpha"/>
<feMorphology radius="3" operator="dilate" in="SourceAlpha" result="effect1_dropShadow_59_2"/>
<feOffset dx="2" dy="2"/>
<feGaussianBlur stdDeviation="2.5"/>
<feComposite in2="hardAlpha" operator="out"/>
<feColorMatrix type="matrix" values="0 0 0 0 0.504167 0 0 0 0 0.504167 0 0 0 0 0.504167 0 0 0 0.25 0"/>
<feBlend mode="normal" in2="BackgroundImageFix" result="effect1_dropShadow_59_2"/>
<feBlend mode="normal" in="SourceGraphic" in2="effect1_dropShadow_59_2" result="shape"/>

</filter>
</defs>
</svg>
